<svg width="64" height="64" viewBox="0 0 64 64" fill="none" xmlns="http://www.w3.org/2000/svg">
<rect width="64" height="64" rx="6.59794" fill="url(#paint0_linear_193_3162)"/>
<g clip-path="url(#clip0_193_3162)">
<path fill-rule="evenodd" clip-rule="evenodd" d="M26.1862 35.8616C30.7587 43.7814 36.4723 45.5076 38.7476 45.8952C39.1994 45.9711 39.7027 45.8595 40.2324 45.5537L43.008 43.9512C44.1108 43.3145 44.3439 41.675 43.2928 40.671L40.7803 38.2726C40.1039 37.6278 39.1411 37.5235 38.4122 37.9443L37.5231 38.4577L36.8981 37.3751C37.5231 38.4577 37.5216 38.4585 37.5202 38.4593L37.4682 38.4893C37.3841 38.5331 37.2963 38.5696 37.206 38.5984C37.0567 38.6499 36.8655 38.6988 36.6353 38.72C36.1669 38.7653 35.5842 38.6995 34.9194 38.4079C33.6217 37.8369 32.0904 36.4347 30.3662 33.4483C28.6421 30.462 28.1933 28.4347 28.3477 27.0254C28.4261 26.3046 28.6604 25.7671 28.9353 25.3832C29.0885 25.1683 29.2747 24.9789 29.4871 24.8222L29.5539 24.7779L29.5827 24.7612L29.5934 24.7531L29.6035 24.7473C29.6035 24.7473 29.6064 24.7456 30.2314 25.8281L29.6064 24.7456L30.1665 24.4223C30.9834 23.9506 31.3632 22.9018 30.9719 21.9173L29.7281 18.7864C29.2414 17.5567 27.8468 17.1013 26.8394 17.6829L23.7722 19.4538C23.1371 19.8204 22.7519 20.3065 22.6411 20.8381C22.1817 23.0355 21.8246 28.307 26.1862 35.8616ZM30.9603 26.8507L31.4165 26.5873C33.3607 25.4648 34.1222 23.0738 33.2969 20.9945L32.0532 17.8635C31.0379 15.3051 27.9998 14.1262 25.5894 15.5179L22.5222 17.2887C21.4642 17.8995 20.4882 18.9057 20.1941 20.3264C19.612 23.1181 19.347 29.0157 24.0212 37.1116C29.0295 45.7863 35.456 47.8707 38.3288 48.3598C39.5063 48.5594 40.6005 48.2279 41.4824 47.7188L44.258 46.1163C46.9037 44.5888 47.1939 40.9379 45.0189 38.8642L42.5065 36.4658C41.0632 35.0859 38.8943 34.7793 37.1637 35.7784L36.377 36.2326C36.2205 36.231 36.0665 36.1927 35.9275 36.1207C35.3339 35.8592 34.1405 34.9855 32.5313 32.1983C30.923 29.4126 30.7622 27.9408 30.8325 27.2959C30.8613 27.0291 30.9295 26.8973 30.9603 26.8507Z" fill="white"/>
</g>
<defs>
<linearGradient id="paint0_linear_193_3162" x1="0" y1="0" x2="64" y2="64" gradientUnits="userSpaceOnUse">
<stop stop-color="#14ABB7"/>
<stop offset="0.732894" stop-color="#08668C"/>
<stop offset="1" stop-color="#003A70"/>
</linearGradient>
<clipPath id="clip0_193_3162">
<rect width="40" height="40" fill="white" transform="translate(25 59.6406) rotate(-120)"/>
</clipPath>
</defs>
</svg>
