<svg width="32" height="32" viewBox="0 0 32 32" fill="none" xmlns="http://www.w3.org/2000/svg">
<g clip-path="url(#clip0_2007_1490)">
<path d="M16 0C11.7575 0 7.685 1.68675 4.6875 4.68625C1.6875 7.68575 0 11.7583 0 16C0 20.2417 1.6875 24.3142 4.6875 27.3137C7.685 30.3132 11.7575 32 16 32C20.2425 32 24.315 30.3132 27.3125 27.3137C30.3125 24.3142 32 20.2417 32 16C32 11.7583 30.3125 7.68575 27.3125 4.68625C24.315 1.68675 20.2425 0 16 0Z" fill="url(#paint0_linear_2007_1490)"/>
<path d="M7.24262 15.831C11.9076 13.799 15.0176 12.4593 16.5726 11.812C21.0176 9.96379 21.9401 9.64279 22.5426 9.63193C22.6751 9.62979 22.9701 9.66254 23.1626 9.81829C23.3226 9.94954 23.3676 10.127 23.3901 10.2515C23.4101 10.376 23.4376 10.6598 23.4151 10.8813C23.1751 13.4113 22.1326 19.5508 21.6026 22.3845C21.3801 23.5836 20.9376 23.9856 20.5101 24.0248C19.5801 24.1103 18.8751 23.4108 17.9751 22.821C16.5676 21.8978 15.7726 21.3233 14.4051 20.4225C12.8251 19.3815 13.8501 18.8093 14.7501 17.8743C14.9851 17.6295 19.0801 13.9058 19.1576 13.568C19.1676 13.5258 19.1776 13.3683 19.0826 13.2853C18.9901 13.202 18.8526 13.2305 18.7526 13.253C18.6101 13.285 16.3626 14.772 12.0026 17.7138C11.3651 18.1523 10.7876 18.366 10.2676 18.3548C9.69762 18.3425 8.59762 18.0318 7.78012 17.7663C6.78012 17.4405 5.98262 17.2683 6.05262 16.715C6.08762 16.427 6.48512 16.1323 7.24262 15.831Z" fill="white"/>
</g>
<defs>
<linearGradient id="paint0_linear_2007_1490" x1="1600" y1="0" x2="1600" y2="3200" gradientUnits="userSpaceOnUse">
<stop stop-color="#2AABEE"/>
<stop offset="1" stop-color="#229ED9"/>
</linearGradient>
<clipPath id="clip0_2007_1490">
<rect width="32" height="32" fill="white"/>
</clipPath>
</defs>
</svg>
