<svg width="32" height="32" viewBox="0 0 32 32" fill="none" xmlns="http://www.w3.org/2000/svg">
<g clip-path="url(#clip0_2007_1491)">
<path d="M16 31.99C12.8717 31.9905 9.81204 31.0722 7.20102 29.349L1.05302 31.313L3.04602 25.373C1.0617 22.6511 -0.00509174 19.3684 1.82726e-05 16C1.82726e-05 7.18201 7.17302 0.0100098 15.99 0.0100098C24.807 0.0100098 31.98 7.18201 31.98 16C31.98 24.818 24.81 31.99 15.99 31.99H16Z" fill="#FEFEFE"/>
<path d="M16 0.00927734C7.18202 0.00927734 0.00952148 7.18204 0.00952148 15.9998C0.00952148 19.4966 1.13764 22.7401 3.05533 25.3725L1.06202 31.3142L7.20749 29.3496C9.73593 31.0229 12.7539 31.991 16.0066 31.991C24.8246 31.991 31.9971 24.818 31.9971 16.0005C31.9971 7.1831 24.8243 0.0100728 16.0066 0.0100728H15.9973L16 0.00927734Z" fill="url(#paint0_linear_2007_1491)"/>
<path d="M11.5349 8.13201C11.2349 7.38901 10.9899 7.36201 10.5199 7.33201L9.98391 7.31201C9.37391 7.31201 8.73391 7.49201 8.34791 7.88501C7.87791 8.36501 6.71191 9.48301 6.71191 11.777C6.71191 14.071 8.38491 16.289 8.61191 16.6C8.84691 16.9 11.8739 21.686 16.5749 23.632C20.2509 25.155 21.3409 25.014 22.1779 24.835C23.3999 24.572 24.9319 23.669 25.3179 22.579C25.7039 21.489 25.7039 20.559 25.5899 20.359C25.4759 20.159 25.1669 20.059 24.6969 19.814C24.2269 19.569 21.9429 18.451 21.5099 18.3C21.0869 18.14 20.6829 18.197 20.3629 18.648C19.9129 19.278 19.4699 19.918 19.1129 20.302C18.8309 20.602 18.3699 20.642 17.9849 20.482C17.4679 20.266 16.0199 19.758 14.2349 18.169C12.8529 16.939 11.9129 15.405 11.6399 14.945C11.3669 14.475 11.6119 14.202 11.8279 13.948C12.0629 13.656 12.2879 13.45 12.5239 13.178C12.7599 12.906 12.8909 12.764 13.0409 12.445C13.2009 12.145 13.0879 11.815 12.9749 11.58C12.8619 11.345 11.9219 9.05001 11.5369 8.12001L11.5349 8.13201Z" fill="#FEFEFE"/>
</g>
<defs>
<linearGradient id="paint0_linear_2007_1491" x1="-120.19" y1="-53.5661" x2="-120.19" y2="-52.3929" gradientUnits="userSpaceOnUse">
<stop stop-color="#6EBF61"/>
<stop offset="0.231" stop-color="#50A557"/>
<stop offset="0.522" stop-color="#2A904F"/>
<stop offset="0.812" stop-color="#50A557"/>
<stop offset="1" stop-color="#6EBF63"/>
</linearGradient>
<clipPath id="clip0_2007_1491">
<rect width="32" height="32" fill="white"/>
</clipPath>
</defs>
</svg>
