<svg width="20" height="20" viewBox="0 0 20 20" fill="none" xmlns="http://www.w3.org/2000/svg">
<g clip-path="url(#clip0_2007_1502)">
<path d="M6.66675 18.3334H13.3334C15.6901 18.3334 16.8692 18.3334 17.6009 17.6017C18.3334 16.8684 18.3334 15.6909 18.3334 13.3334V12.5C18.3334 10.1434 18.3334 8.96504 17.6009 8.23254C16.9609 7.59254 15.9792 7.51171 14.1667 7.50171M5.83341 7.50171C4.02091 7.51171 3.03925 7.59254 2.39925 8.23254C1.66675 8.96504 1.66675 10.1434 1.66675 12.5V13.3334C1.66675 15.6909 1.66675 16.8692 2.39925 17.6017C2.64925 17.8517 2.95091 18.0159 3.33341 18.1242" stroke="#002548" stroke-width="1.5" stroke-linecap="round"/>
<path d="M10 1.66675V12.5001M10 12.5001L7.5 9.58341M10 12.5001L12.5 9.58341" stroke="#002548" stroke-width="1.5" stroke-linecap="round" stroke-linejoin="round"/>
</g>
<defs>
<clipPath id="clip0_2007_1502">
<rect width="20" height="20" fill="white"/>
</clipPath>
</defs>
</svg>
