<svg width="64" height="65" viewBox="0 0 64 65" fill="none" xmlns="http://www.w3.org/2000/svg">
<rect y="0.5" width="64" height="64" rx="6.59794" fill="#14ABB7"/>
<path d="M31.8399 15.8341C22.7399 15.8341 15.3233 23.2507 15.3233 32.3507C15.3233 35.2674 16.0899 38.1007 17.5233 40.6007L15.1899 49.1674L23.9399 46.8674C26.3566 48.1841 29.0733 48.8841 31.8399 48.8841C40.9399 48.8841 48.3566 41.4674 48.3566 32.3674C48.3566 27.9507 46.6399 23.8007 43.5233 20.6841C41.9951 19.1409 40.175 17.9174 38.1691 17.0847C36.1633 16.252 34.0117 15.8269 31.8399 15.8341ZM31.8566 18.6174C35.5233 18.6174 38.9566 20.0507 41.5566 22.6507C42.8323 23.9266 43.8437 25.4416 44.5329 27.1089C45.2222 28.7763 45.5757 30.5632 45.5733 32.3674C45.5733 39.9341 39.4066 46.0841 31.8399 46.0841C29.3733 46.0841 26.9566 45.4341 24.8566 44.1674L24.3566 43.8841L19.1566 45.2507L20.5399 40.1841L20.2066 39.6507C18.8309 37.4647 18.1027 34.9336 18.1066 32.3507C18.1233 24.7841 24.2733 18.6174 31.8566 18.6174ZM25.9899 24.7174C25.7233 24.7174 25.2733 24.8174 24.8899 25.2341C24.5233 25.6507 23.4399 26.6674 23.4399 28.6841C23.4399 30.7174 24.9233 32.6674 25.1066 32.9507C25.3399 33.2341 28.0399 37.4007 32.1899 39.1674C33.1733 39.6174 33.9399 39.8674 34.5399 40.0507C35.5233 40.3674 36.4233 40.3174 37.1399 40.2174C37.9399 40.1007 39.5733 39.2174 39.9233 38.2507C40.2733 37.2841 40.2733 36.4674 40.1733 36.2841C40.0566 36.1174 39.7899 36.0174 39.3733 35.8341C38.9566 35.6007 36.9233 34.6007 36.5566 34.4674C36.1733 34.3341 35.9399 34.2674 35.6233 34.6674C35.3566 35.0841 34.5566 36.0174 34.3233 36.2841C34.0733 36.5674 33.8399 36.6007 33.4399 36.4007C33.0066 36.1841 31.6733 35.7507 30.1066 34.3507C28.8733 33.2507 28.0566 31.9007 27.8066 31.4841C27.6066 31.0841 27.7899 30.8341 27.9899 30.6507C28.1733 30.4674 28.4399 30.1674 28.6066 29.9174C28.8233 29.6841 28.8899 29.5007 29.0233 29.2341C29.1566 28.9507 29.0899 28.7174 28.9899 28.5174C28.8899 28.3341 28.0566 26.2674 27.7066 25.4507C27.3733 24.6507 27.0399 24.7507 26.7733 24.7341C26.5399 24.7341 26.2733 24.7174 25.9899 24.7174Z" fill="white"/>
</svg>
