<svg width="64" height="65" viewBox="0 0 64 65" fill="none" xmlns="http://www.w3.org/2000/svg">
<rect y="0.5" width="64" height="64" rx="6.59794" fill="#14ABB7"/>
<path d="M39.325 27.2434L37.5084 38.8751C37.4833 39.0354 37.4188 39.1871 37.3207 39.3163C37.2226 39.4456 37.0939 39.5485 36.9461 39.6157C36.7984 39.683 36.6363 39.7125 36.4744 39.7016C36.3124 39.6907 36.1557 39.6398 36.0184 39.5534L29.935 35.7417C29.8086 35.6626 29.7019 35.5557 29.623 35.4291C29.5441 35.3025 29.4952 35.1596 29.4799 35.0113C29.4647 34.8629 29.4835 34.713 29.5349 34.573C29.5863 34.433 29.669 34.3066 29.7767 34.2034L34.8267 29.3634C34.8834 29.3101 34.8167 29.2217 34.75 29.2617L27.43 33.6417C26.9949 33.9033 26.4783 33.9942 25.98 33.8967L23.33 33.3851C22.3734 33.2001 22.2417 31.8867 23.14 31.5151L37.31 25.6567C37.5514 25.5563 37.8152 25.5221 38.0743 25.5576C38.3333 25.593 38.5782 25.697 38.7837 25.8587C38.9891 26.0203 39.1478 26.2339 39.2432 26.4773C39.3387 26.7207 39.3675 26.9851 39.3267 27.2434" fill="white"/>
<path fill-rule="evenodd" clip-rule="evenodd" d="M31.8866 15.3438C22.4116 15.3438 14.73 23.0254 14.73 32.5004C14.73 41.9754 22.4116 49.6571 31.8866 49.6571C41.3617 49.6571 49.0433 41.9754 49.0433 32.5004C49.0433 23.0254 41.3617 15.3438 31.8866 15.3438ZM17.67 32.5004C17.67 30.6335 18.0377 28.7848 18.7522 27.0599C19.4666 25.3351 20.5138 23.7679 21.8339 22.4477C23.1541 21.1276 24.7213 20.0804 26.4462 19.3659C28.171 18.6515 30.0197 18.2838 31.8866 18.2838C33.7536 18.2838 35.6023 18.6515 37.3271 19.3659C39.052 20.0804 40.6192 21.1276 41.9394 22.4477C43.2595 23.7679 44.3067 25.3351 45.0211 27.0599C45.7356 28.7848 46.1033 30.6335 46.1033 32.5004C46.1033 36.2709 44.6055 39.887 41.9394 42.5531C39.2732 45.2193 35.6571 46.7171 31.8866 46.7171C28.1162 46.7171 24.5001 45.2193 21.8339 42.5531C19.1678 39.887 17.67 36.2709 17.67 32.5004Z" fill="white"/>
</svg>
