<svg width="64" height="64" viewBox="0 0 64 64" fill="none" xmlns="http://www.w3.org/2000/svg">
<rect width="64" height="64" rx="6.59794" fill="url(#paint0_linear_193_3165)"/>
<path d="M39.3249 26.7434L37.5082 38.3751C37.4832 38.5354 37.4187 38.6871 37.3206 38.8163C37.2224 38.9456 37.0937 39.0485 36.946 39.1157C36.7983 39.183 36.6362 39.2125 36.4743 39.2016C36.3123 39.1907 36.1556 39.1398 36.0182 39.0534L29.9349 35.2417C29.8085 35.1626 29.7017 35.0557 29.6229 34.9291C29.544 34.8025 29.4951 34.6596 29.4798 34.5113C29.4645 34.3629 29.4833 34.213 29.5348 34.073C29.5862 33.933 29.6689 33.8066 29.7766 33.7034L34.8266 28.8634C34.8832 28.8101 34.8166 28.7217 34.7499 28.7617L27.4299 33.1417C26.9948 33.4033 26.4781 33.4942 25.9799 33.3967L23.3299 32.8851C22.3732 32.7001 22.2416 31.3867 23.1399 31.0151L37.3099 25.1567C37.5513 25.0563 37.8151 25.0221 38.0741 25.0576C38.3332 25.093 38.5781 25.197 38.7835 25.3587C38.989 25.5203 39.1477 25.7339 39.2431 25.9773C39.3386 26.2207 39.3674 26.4851 39.3266 26.7434" fill="white"/>
<path fill-rule="evenodd" clip-rule="evenodd" d="M31.8866 14.8438C22.4116 14.8438 14.73 22.5254 14.73 32.0004C14.73 41.4754 22.4116 49.1571 31.8866 49.1571C41.3617 49.1571 49.0433 41.4754 49.0433 32.0004C49.0433 22.5254 41.3617 14.8438 31.8866 14.8438ZM17.67 32.0004C17.67 30.1335 18.0377 28.2848 18.7522 26.5599C19.4666 24.8351 20.5138 23.2679 21.8339 21.9477C23.1541 20.6276 24.7213 19.5804 26.4462 18.8659C28.171 18.1515 30.0197 17.7838 31.8866 17.7838C33.7536 17.7838 35.6023 18.1515 37.3271 18.8659C39.052 19.5804 40.6192 20.6276 41.9394 21.9477C43.2595 23.2679 44.3067 24.8351 45.0211 26.5599C45.7356 28.2848 46.1033 30.1335 46.1033 32.0004C46.1033 35.7709 44.6055 39.387 41.9394 42.0531C39.2732 44.7193 35.6571 46.2171 31.8866 46.2171C28.1162 46.2171 24.5001 44.7193 21.8339 42.0531C19.1678 39.387 17.67 35.7709 17.67 32.0004Z" fill="white"/>
<defs>
<linearGradient id="paint0_linear_193_3165" x1="0" y1="0" x2="64" y2="64" gradientUnits="userSpaceOnUse">
<stop stop-color="#14ABB7"/>
<stop offset="0.732894" stop-color="#08668C"/>
<stop offset="1" stop-color="#003A70"/>
</linearGradient>
</defs>
</svg>
