<svg width="64" height="64" viewBox="0 0 64 64" fill="none" xmlns="http://www.w3.org/2000/svg">
<rect width="64" height="64" rx="6.59794" fill="url(#paint0_linear_193_3169)"/>
<path d="M31.8398 15.3341C22.7398 15.3341 15.3232 22.7507 15.3232 31.8507C15.3232 34.7674 16.0898 37.6007 17.5232 40.1007L15.1898 48.6674L23.9398 46.3674C26.3565 47.6841 29.0732 48.3841 31.8398 48.3841C40.9398 48.3841 48.3565 40.9674 48.3565 31.8674C48.3565 27.4507 46.6398 23.3007 43.5232 20.1841C41.9949 18.6409 40.1749 17.4174 38.169 16.5847C36.1631 15.752 34.0116 15.3269 31.8398 15.3341ZM31.8565 18.1174C35.5232 18.1174 38.9565 19.5507 41.5565 22.1507C42.8321 23.4266 43.8435 24.9416 44.5328 26.6089C45.222 28.2763 45.5756 30.0632 45.5732 31.8674C45.5732 39.4341 39.4065 45.5841 31.8398 45.5841C29.3732 45.5841 26.9565 44.9341 24.8565 43.6674L24.3565 43.3841L19.1565 44.7507L20.5398 39.6841L20.2065 39.1507C18.8307 36.9647 18.1026 34.4336 18.1065 31.8507C18.1232 24.2841 24.2732 18.1174 31.8565 18.1174ZM25.9898 24.2174C25.7232 24.2174 25.2732 24.3174 24.8898 24.7341C24.5232 25.1507 23.4398 26.1674 23.4398 28.1841C23.4398 30.2174 24.9232 32.1674 25.1065 32.4507C25.3398 32.7341 28.0398 36.9007 32.1898 38.6674C33.1732 39.1174 33.9398 39.3674 34.5398 39.5507C35.5232 39.8674 36.4232 39.8174 37.1398 39.7174C37.9398 39.6007 39.5732 38.7174 39.9232 37.7507C40.2732 36.7841 40.2732 35.9674 40.1732 35.7841C40.0565 35.6174 39.7898 35.5174 39.3732 35.3341C38.9565 35.1007 36.9232 34.1007 36.5565 33.9674C36.1732 33.8341 35.9398 33.7674 35.6232 34.1674C35.3565 34.5841 34.5565 35.5174 34.3232 35.7841C34.0732 36.0674 33.8398 36.1007 33.4398 35.9007C33.0065 35.6841 31.6732 35.2507 30.1065 33.8507C28.8732 32.7507 28.0565 31.4007 27.8065 30.9841C27.6065 30.5841 27.7898 30.3341 27.9898 30.1507C28.1732 29.9674 28.4398 29.6674 28.6065 29.4174C28.8232 29.1841 28.8898 29.0007 29.0232 28.7341C29.1565 28.4507 29.0898 28.2174 28.9898 28.0174C28.8898 27.8341 28.0565 25.7674 27.7065 24.9507C27.3732 24.1507 27.0398 24.2507 26.7732 24.2341C26.5398 24.2341 26.2732 24.2174 25.9898 24.2174Z" fill="white"/>
<defs>
<linearGradient id="paint0_linear_193_3169" x1="0" y1="0" x2="64" y2="64" gradientUnits="userSpaceOnUse">
<stop stop-color="#14ABB7"/>
<stop offset="0.732894" stop-color="#08668C"/>
<stop offset="1" stop-color="#003A70"/>
</linearGradient>
</defs>
</svg>
