<svg width="40" height="40" viewBox="0 0 40 40" fill="none" xmlns="http://www.w3.org/2000/svg">
<rect x="0.5" y="0.5" width="39" height="39" rx="3.62371" fill="white"/>
<rect x="0.5" y="0.5" width="39" height="39" rx="3.62371" stroke="#003A70"/>
<path d="M23.0928 14.2058C22.7942 14.2058 22.4997 14.1363 22.2326 14.0029L18.1798 11.9765C17.9127 11.843 17.6182 11.7735 17.3196 11.7735M23.0928 14.2058C23.3914 14.2058 23.6859 14.1363 23.953 14.0029L27.4737 12.242C27.6205 12.1687 27.7836 12.1341 27.9476 12.1415C28.1115 12.149 28.2708 12.1983 28.4103 12.2847C28.5499 12.3711 28.665 12.4917 28.7447 12.6352C28.8245 12.7786 28.8662 12.94 28.866 13.1042V25.3857C28.8659 25.5643 28.8161 25.7394 28.7221 25.8913C28.6281 26.0433 28.4937 26.166 28.3339 26.2459L23.953 28.4368C23.6859 28.5703 23.3914 28.6398 23.0928 28.6398M23.0928 14.2058V28.6398M23.0928 28.6398C22.7942 28.6398 22.4997 28.5703 22.2326 28.4368L18.1798 26.4104C17.9127 26.2769 17.6182 26.2075 17.3196 26.2075C17.021 26.2075 16.7265 26.2769 16.4594 26.4104L12.9387 28.1712C12.7918 28.2446 12.6286 28.2792 12.4646 28.2717C12.3006 28.2642 12.1412 28.2148 12.0016 28.1283C11.8621 28.0418 11.747 27.921 11.6673 27.7775C11.5876 27.6339 11.546 27.4723 11.5464 27.3081V15.0276C11.5465 14.849 11.5963 14.6739 11.6903 14.5219C11.7843 14.37 11.9187 14.2472 12.0785 14.1674L16.4594 11.9765C16.7265 11.843 17.021 11.7735 17.3196 11.7735M17.3196 11.7735V26.2064" stroke="#003A70" stroke-width="1.9244" stroke-linecap="round" stroke-linejoin="round"/>
</svg>
