<svg width="64" height="65" viewBox="0 0 64 65" fill="none" xmlns="http://www.w3.org/2000/svg">
<rect y="0.5" width="64" height="64" rx="6.59794" fill="#14ABB7"/>
<g clip-path="url(#clip0_635_175)">
<path d="M26.7871 17H37.2129C41.9983 17 44.3411 17.6087 45.6162 18.8838C46.8913 20.1589 47.5 22.5017 47.5 27.2871V37.7129C47.5 42.4983 46.8913 44.8411 45.6162 46.1162C44.3411 47.3913 41.9983 48 37.2129 48H26.7871C22.0017 48 19.6589 47.3913 18.3838 46.1162C17.1087 44.8411 16.5 42.4983 16.5 37.7129V27.2871C16.5 22.5017 17.1087 20.1589 18.3838 18.8838C19.6589 17.6087 22.0017 17 26.7871 17Z" stroke="white" stroke-width="3"/>
<path fill-rule="evenodd" clip-rule="evenodd" d="M42.8436 27.213C43.0012 26.6878 42.8436 26.3018 42.0938 26.3018H39.6146C38.9842 26.3018 38.6938 26.6352 38.5362 27.003C38.5362 27.003 37.2754 30.0759 35.4893 32.072C34.9115 32.6498 34.6489 32.8337 34.3337 32.8337C34.1761 32.8337 33.948 32.6498 33.948 32.1246V27.213C33.948 26.5826 33.7651 26.3018 33.2396 26.3018H29.3438C28.95 26.3018 28.713 26.5943 28.713 26.8716C28.713 27.4693 29.6059 27.607 29.698 29.2879V32.9388C29.698 33.7393 29.5535 33.8845 29.2383 33.8845C28.3978 33.8845 26.3536 30.7975 25.1409 27.2656C24.9033 26.5791 24.6649 26.3018 24.0313 26.3018H21.5521C20.8438 26.3018 20.7021 26.6352 20.7021 27.003C20.7021 27.6596 21.5428 30.9166 24.6157 35.2239C26.6644 38.1655 29.5506 39.7601 32.1771 39.7601C33.7532 39.7601 33.948 39.4059 33.948 38.7959V36.5726C33.948 35.8643 34.0973 35.7229 34.5963 35.7229C34.9641 35.7229 35.5943 35.9068 37.0654 37.325C38.7462 39.0061 39.0232 39.7601 39.9688 39.7601H42.448C43.1563 39.7601 43.5105 39.4059 43.3061 38.707C43.0826 38.0103 42.2801 36.9999 41.2151 35.8017C40.6373 35.1187 39.7705 34.3833 39.508 34.0157C39.1402 33.5429 39.2453 33.3327 39.508 32.9125C39.508 32.9125 42.5284 28.6577 42.8436 27.213Z" fill="white"/>
</g>
<defs>
<clipPath id="clip0_635_175">
<rect width="34" height="34" fill="white" transform="translate(15 15.5)"/>
</clipPath>
</defs>
</svg>
