<svg width="15" height="15" viewBox="0 0 15 15" fill="none" xmlns="http://www.w3.org/2000/svg">
<path d="M5 1.875C5.3125 1.875 6.5625 4.6875 6.5625 5C6.5625 5.625 5.625 6.25 5.3125 6.875C5 7.5 5.625 8.125 6.25 8.75C6.49375 8.99375 7.5 10 8.125 9.6875C8.75 9.375 9.375 8.4375 10 8.4375C10.3125 8.4375 13.125 9.6875 13.125 10C13.125 11.25 12.1875 12.1875 11.25 12.5C10.3125 12.8125 9.6875 12.8125 8.4375 12.5C7.1875 12.1875 6.25 11.875 4.6875 10.3125C3.125 8.75 2.8125 7.8125 2.5 6.5625C2.1875 5.3125 2.1875 4.6875 2.5 3.75C2.8125 2.8125 3.75 1.875 5 1.875Z" stroke="#3F3D4C" stroke-width="1.16667" stroke-linecap="round" stroke-linejoin="round"/>
</svg>
